<?xml version="1.0" encoding="UTF-8"?>
<!DOCTYPE svg PUBLIC "-//W3C//DTD SVG 1.1//EN" "http://www.w3.org/Graphics/SVG/1.1/DTD/svg11.dtd">
<!-- Creator: CorelDRAW 2018 (64-Bit) -->
<svg xmlns="http://www.w3.org/2000/svg" xml:space="preserve" width="10in" height="10in" version="1.1" style="shape-rendering:geometricPrecision; text-rendering:geometricPrecision; image-rendering:optimizeQuality; fill-rule:evenodd; clip-rule:evenodd"
viewBox="0 0 10000 10000"
 xmlns:xlink="http://www.w3.org/1999/xlink">
 <defs>
  <style type="text/css">
   <![CDATA[
    .str0 {stroke:black;stroke-width:6.94;stroke-miterlimit:2.61313}
    .fil3 {fill:none}
    .fil2 {fill:black}
    .fil4 {fill:#383E56}
    .fil6 {fill:#D4B5B0}
    .fil0 {fill:#E6E6E6}
    .fil8 {fill:#EEDAD1}
    .fil5 {fill:#F69E7B}
    .fil1 {fill:white}
    .fil9 {fill:#EEDAD1;fill-rule:nonzero}
    .fil7 {fill:#F69E7B;fill-rule:nonzero}
   ]]>
  </style>
   <clipPath id="id0">
    <path d="M789.58 2000l8420.84 0c256.67,0 466.67,210 466.67,466.67l0 5066.67c0,256.67 -210,466.67 -466.67,466.67l-8420.84 0c-256.67,0 -466.67,-210 -466.67,-466.67l0 -5066.67c0,-256.67 210,-466.67 466.67,-466.67z"/>
   </clipPath>
    <clipPath id="id1">
     <path d="M322.91 2571.35l9354.17 0 0 4961.98c0,256.67 -210,466.67 -466.67,466.67l-8420.84 0c-256.67,0 -466.67,-210 -466.67,-466.67l0 -4961.98z"/>
    </clipPath>
    <clipPath id="id2">
     <path d="M789.58 2000l8420.84 0c256.67,0 466.67,210 466.67,466.67l0 5066.67c0,256.67 -210,466.67 -466.67,466.67l-8420.84 0c-256.67,0 -466.67,-210 -466.67,-466.67l0 -5066.67c0,-256.67 210,-466.67 466.67,-466.67z"/>
    </clipPath>
 </defs>
 <g id="Layer_x0020_1">
  <metadata id="CorelCorpID_0Corel-Layer"/>
  <rect class="fil0" width="10000" height="10000"/>
  <path class="fil1" d="M789.58 2000l8420.84 0c256.67,0 466.67,210 466.67,466.67l0 5066.67c0,256.67 -210,466.67 -466.67,466.67l-8420.84 0c-256.67,0 -466.67,-210 -466.67,-466.67l0 -5066.67c0,-256.67 210,-466.67 466.67,-466.67z"/>
  <g style="clip-path:url(#id0)">
   <g id="_2226845448336">
    <polygon id="1" class="fil2" points="115.09,2571.35 10406.76,2571.35 10406.76,8467.19 115.09,8467.19 "/>
   </g>
   <g style="clip-path:url(#id1)">
    <g>
    </g>
   </g>
   <g style="clip-path:url(#id2)">
    <polygon id="2" class="fil3" points="115.09,2571.35 10406.76,2571.35 10406.76,8467.19 115.09,8467.19 "/>
    <rect class="fil4 str0" x="156.71" y="7232.32" width="9635.42" height="1697.92"/>
   </g>
  </g>
  <path class="fil3" d="M789.58 2000l8420.84 0c256.67,0 466.67,210 466.67,466.67l0 5066.67c0,256.67 -210,466.67 -466.67,466.67l-8420.84 0c-256.67,0 -466.67,-210 -466.67,-466.67l0 -5066.67c0,-256.67 210,-466.67 466.67,-466.67z"/>
  <circle class="fil4" cx="766.15" cy="2299.47" r="114.58"/>
  <circle class="fil5" cx="1094.28" cy="2299.47" r="114.58"/>
  <circle class="fil6" cx="1419.8" cy="2299.47" r="114.58"/>
  <path class="fil5" d="M4787.15 7565.35l145.54 0 0 67.74 0 10.9 134.61 0 0 -78.64 145.54 0 0 225.75 -425.7 0 0 -225.75zm167.34 0l91.02 0 0 56.84 -91.02 0 0 -56.84z"/>
  <path class="fil7" d="M4943.59 7633.09l0 -112.81 -56.4 0 112.81 -112.81 112.81 112.81 -56.4 0 0 112.81 -112.82 0zm0 -56.41m-28.2 -56.41m28.2 -56.41m112.81 0m28.2 56.41m-28.2 56.41m-56.41 56.41"/>
  <path class="fil8" d="M5917.94 7794.51l19.96 -55.63 9.79 -27.28c-16.83,-25.87 -26.62,-56.75 -26.62,-89.91 0,-91.18 73.91,-165.1 165.1,-165.1 91.18,0 165.09,73.92 165.09,165.1 0,91.18 -73.91,165.09 -165.09,165.09 -21.57,0 -42.17,-4.14 -61.06,-11.67l-49.02 8.87 -58.16 10.52z"/>
  <rect class="fil4" x="718.75" y="3085.81" width="2762.02" height="1835.52"/>
  <rect class="fil4" x="3638.1" y="3085.81" width="2762.02" height="1835.52"/>
  <rect class="fil4" x="718.75" y="5078.66" width="2762.02" height="1835.52"/>
  <rect class="fil4" x="3638.1" y="5078.66" width="2762.02" height="1835.52"/>
  <rect class="fil4" x="6519.23" y="3085.81" width="2762.02" height="1835.52"/>
  <rect class="fil4" x="6519.23" y="5078.66" width="2762.02" height="1835.52"/>
  <g id="_2226668785616">
   <rect class="fil8" x="1330.73" y="7504.1" width="332.55" height="238.66" rx="39.49" ry="42.96"/>
   <polygon class="fil8" points="1584,7630.43 1683,7568.26 1781.99,7506.09 1781.99,7630.43 1781.99,7754.76 1683,7692.59 "/>
  </g>
  <g id="_2226668787536">
   <path class="fil6" d="M3826.48 7633.36l122.93 0c55,0 100,45 100,100l0 92.71 -322.92 0 0 -92.71c0,-55 45,-100 100,-100z"/>
   <circle class="fil6" cx="3887.95" cy="7536.46" r="111.43"/>
  </g>
  <g id="_2226668788208">
   <rect class="fil8" x="958.02" y="7398.39" width="148.03" height="299.85" rx="26.53" ry="34.01"/>
   <rect class="fil8" x="1011.16" y="7662.18" width="34.16" height="100.58"/>
   <rect class="fil8" x="967.99" y="7760.63" width="120.51" height="22.77" rx="19.43" ry="19.43"/>
  </g>
  <g id="_2226841445424">
   <path class="fil8" d="M3730.88 7633.36l122.93 0c55,0 100,45 100,100l0 92.71 -322.92 0 0 -92.71c0,-55 45,-100 100,-100z"/>
   <circle class="fil8" cx="3792.35" cy="7536.46" r="111.43"/>
  </g>
  <circle class="fil4" cx="6005.07" cy="7617.31" r="22.78"/>
  <circle class="fil4" cx="6088.4" cy="7617.31" r="22.78"/>
  <circle class="fil4" cx="6165.87" cy="7617.31" r="22.78"/>
  <g id="_2226841428464">
   <circle class="fil8" cx="6985.03" cy="7636.84" r="111.98"/>
   <path class="fil9" d="M6985.03 7482.67c42.57,0 81.11,17.26 109.01,45.16 27.9,27.9 45.16,66.44 45.16,109.01 0,42.57 -17.26,81.11 -45.16,109.01 -27.9,27.9 -66.44,45.16 -109.01,45.16 -42.57,0 -81.11,-17.26 -109.01,-45.16 -27.9,-27.9 -45.16,-66.44 -45.16,-109.01 0,-42.57 17.26,-81.11 45.16,-109.01 27.9,-27.9 66.44,-45.16 109.01,-45.16zm97.23 56.94c-24.87,-24.87 -59.26,-40.27 -97.23,-40.27 -37.97,0 -72.35,15.39 -97.23,40.27 -24.87,24.88 -40.27,59.26 -40.27,97.23 0,37.97 15.39,72.36 40.27,97.23 24.88,24.87 59.26,40.27 97.23,40.27 37.97,0 72.36,-15.39 97.23,-40.27 24.87,-24.87 40.27,-59.26 40.27,-97.23 0,-37.97 -15.39,-72.35 -40.27,-97.23z"/>
  </g>
  <g id="_2226841423280">
   <path class="fil8" d="M1893.99 4029.73l411.53 0c184.15,0 334.81,150.67 334.81,334.81l0 310.39 -1081.15 0 0 -310.39c0,-184.14 150.66,-334.81 334.81,-334.81z"/>
   <circle class="fil8" cx="2099.76" cy="3705.3" r="373.08"/>
  </g>
  <g id="_2226841422672">
   <path class="fil5" d="M4813.34 4029.73l411.53 0c184.15,0 334.81,150.67 334.81,334.81l0 310.39 -1081.15 0 0 -310.39c0,-184.14 150.66,-334.81 334.81,-334.81z"/>
   <circle class="fil5" cx="5019.11" cy="3705.3" r="373.08"/>
  </g>
  <g id="_2226841419888">
   <path class="fil8" d="M7694.48 4029.73l411.53 0c184.15,0 334.81,150.67 334.81,334.81l0 310.39 -1081.15 0 0 -310.39c0,-184.14 150.66,-334.81 334.81,-334.81z"/>
   <circle class="fil8" cx="7900.25" cy="3705.3" r="373.08"/>
  </g>
  <g id="_2226832752208">
   <path class="fil8" d="M1893.99 6022.58l411.53 0c184.15,0 334.81,150.67 334.81,334.81l0 310.39 -1081.15 0 0 -310.39c0,-184.14 150.66,-334.81 334.81,-334.81z"/>
   <circle class="fil8" cx="2099.76" cy="5698.15" r="373.08"/>
  </g>
  <g id="_2226832750896">
   <path class="fil8" d="M4813.34 6022.58l411.53 0c184.15,0 334.81,150.67 334.81,334.81l0 310.39 -1081.15 0 0 -310.39c0,-184.14 150.66,-334.81 334.81,-334.81z"/>
   <circle class="fil8" cx="5019.11" cy="5698.15" r="373.08"/>
  </g>
  <rect class="fil4" x="6519.23" y="5078.66" width="2762.02" height="1835.52"/>
  <g id="_2226832763152">
   <path class="fil8" d="M7694.48 6022.58l411.53 0c184.15,0 334.81,150.67 334.81,334.81l0 310.39 -1081.15 0 0 -310.39c0,-184.14 150.66,-334.81 334.81,-334.81z"/>
   <circle class="fil8" cx="7900.25" cy="5698.15" r="373.08"/>
  </g>
 </g>
</svg>
